<svg width="22" height="25" viewBox="0 0 22 25" fill="none" xmlns="http://www.w3.org/2000/svg">
<path d="M11.437 13.864C10.4469 13.857 9.49434 14.2423 8.78752 14.9357C8.0807 15.629 7.67711 16.574 7.66498 17.564C7.66498 20.337 11.437 24.43 11.437 24.43C11.437 24.43 15.209 20.337 15.209 17.564C15.1968 16.574 14.7933 15.629 14.0864 14.9357C13.3796 14.2423 12.4271 13.857 11.437 13.864ZM11.437 18.881C11.1768 18.8759 10.924 18.794 10.7102 18.6458C10.4964 18.4975 10.3311 18.2894 10.2351 18.0475C10.1392 17.8057 10.1167 17.5409 10.1707 17.2863C10.2246 17.0318 10.3526 16.7989 10.5384 16.6167C10.7242 16.4346 10.9597 16.3115 11.2153 16.2627C11.4709 16.2139 11.7352 16.2417 11.975 16.3425C12.2149 16.4434 12.4196 16.6128 12.5635 16.8296C12.7074 17.0463 12.7841 17.3008 12.784 17.561C12.7839 17.7366 12.7488 17.9104 12.6807 18.0723C12.6126 18.2342 12.513 18.3808 12.3876 18.5037C12.2621 18.6266 12.1135 18.7233 11.9503 18.7881C11.787 18.8529 11.6125 18.8844 11.437 18.881Z" fill="#7CA23C"/>
<path d="M22 6.31897H12.192H10.683H0.875V8.58197H1.394L1.625 9.59597C2.379 12.779 3.535 13.863 6.152 13.863C8.769 13.863 10.679 13.043 10.679 9.59597V8.58197C10.679 8.58197 10.75 7.82797 11.433 7.82797C12.116 7.82797 12.187 8.58197 12.187 8.58197V9.60997C12.187 13.052 14.172 13.863 16.761 13.863C19.35 13.863 20.486 12.684 21.241 9.60997L21.477 8.58197H21.996V6.31897H22Z" fill="#7CA23C"/>
<path d="M1.98199 3.625C2.37212 3.02499 2.89905 2.52612 3.5195 2.1694C4.13994 1.81267 4.83618 1.60827 5.55099 1.573C6.44079 1.57444 7.29643 1.9157 7.94299 2.527C8.28214 2.83505 8.55443 3.20944 8.743 3.627" stroke="#7CA23C" stroke-width="2" stroke-linecap="round"/>
</svg>
